name Run_400 02_newCOP3_v24.mot
datacolumns 19
datarows 180
range 1.39 1.569
DataType=double
version=3
OpenSimVersion=4.3-2021-08-27-4bc7ad9
endheader
time	R_ground_force_vx	R_ground_force_vy	R_ground_force_vz	R_ground_force_px	R_ground_force_py	R_ground_force_pz	L_ground_force_vx	L_ground_force_vy	L_ground_force_vz	L_ground_force_px	L_ground_force_py	L_ground_force_pz	R_ground_torque_x	R_ground_torque_y	R_ground_torque_z	L_ground_torque_x	L_ground_torque_y	L_ground_torque_z
1.39	0	0	0	0	0	0	5.418646	18.995649	-1.106389	0.67815	0	-0.320068	0	0	0	-0	1.810252	-0
1.391	0	0	0	0	0	0	4.340086	16.736837	-1.09136	0.707714	0	-0.314931	0	0	0	-0	1.713357	-0
1.392	0	0	0	0	0	0	3.451706	14.735356	-1.102181	0.738545	0	-0.309411	0	0	0	-0	1.620901	-0
1.393	0	0	0	0	0	0	2.74014	12.972403	-1.133758	0.770054	0	-0.303458	0	0	0	-0	1.533033	-0
1.394	0	0	0	0	0	0	2.190747	11.429449	-1.180949	0.801405	0	-0.297008	0	0	0	-0	1.449867	-0
1.395	0	0	0	0	0	0	1.78768	10.088483	-1.238669	0.831485	0	-0.289982	0	0	0	-0	1.371485	-0
1.396	0	0	0	0	0	0	0	0	0	0	0	0	0	0	0	0	0	0
1.397	0	0	0	0	0	0	0	0	0	0	0	0	0	0	0	0	0	0
1.398	0	0	0	0	0	0	0	0	0	0	0	0	0	0	0	0	0	0
1.399	0	0	0	0	0	0	0	0	0	0	0	0	0	0	0	0	0	0
1.4	0	0	0	0	0	0	0	0	0	0	0	0	0	0	0	0	0	0
1.401	0	0	0	0	0	0	0	0	0	0	0	0	0	0	0	0	0	0
1.402	0	0	0	0	0	0	0	0	0	0	0	0	0	0	0	0	0	0
1.403	0	0	0	0	0	0	0	0	0	0	0	0	0	0	0	0	0	0
1.404	0	0	0	0	0	0	0	0	0	0	0	0	0	0	0	0	0	0
1.405	0	0	0	0	0	0	0	0	0	0	0	0	0	0	0	0	0	0
1.406	0	0	0	0	0	0	0	0	0	0	0	0	0	0	0	0	0	0
1.407	0	0	0	0	0	0	0	0	0	0	0	0	0	0	0	0	0	0
1.408	0	0	0	0	0	0	0	0	0	0	0	0	0	0	0	0	0	0
1.409	0	0	0	0	0	0	0	0	0	0	0	0	0	0	0	0	0	0
1.41	0	0	0	0	0	0	0	0	0	0	0	0	0	0	0	0	0	0
1.411	0	0	0	0	0	0	0	0	0	0	0	0	0	0	0	0	0	0
1.412	0	0	0	0	0	0	0	0	0	0	0	0	0	0	0	0	0	0
1.413	0	0	0	0	0	0	0	0	0	0	0	0	0	0	0	0	0	0
1.414	0	0	0	0	0	0	0	0	0	0	0	0	0	0	0	0	0	0
1.415	0	0	0	0	0	0	0	0	0	0	0	0	0	0	0	0	0	0
1.416	0	0	0	0	0	0	0	0	0	0	0	0	0	0	0	0	0	0
1.417	0	0	0	0	0	0	0	0	0	0	0	0	0	0	0	0	0	0
1.418	0	0	0	0	0	0	0	0	0	0	0	0	0	0	0	0	0	0
1.419	0	0	0	0	0	0	0	0	0	0	0	0	0	0	0	0	0	0
1.42	0	0	0	0	0	0	0	0	0	0	0	0	0	0	0	0	0	0
1.421	0	0	0	0	0	0	0	0	0	0	0	0	0	0	0	0	0	0
1.422	0	0	0	0	0	0	0	0	0	0	0	0	0	0	0	0	0	0
1.423	0	0	0	0	0	0	0	0	0	0	0	0	0	0	0	0	0	0
1.424	0	0	0	0	0	0	0	0	0	0	0	0	0	0	0	0	0	0
1.425	0	0	0	0	0	0	0	0	0	0	0	0	0	0	0	0	0	0
1.426	0	0	0	0	0	0	0	0	0	0	0	0	0	0	0	0	0	0
1.427	0	0	0	0	0	0	0	0	0	0	0	0	0	0	0	0	0	0
1.428	0	0	0	0	0	0	0	0	0	0	0	0	0	0	0	0	0	0
1.429	0	0	0	0	0	0	0	0	0	0	0	0	0	0	0	0	0	0
1.43	0	0	0	0	0	0	0	0	0	0	0	0	0	0	0	0	0	0
1.431	0	0	0	0	0	0	0	0	0	0	0	0	0	0	0	0	0	0
1.432	0	0	0	0	0	0	0	0	0	0	0	0	0	0	0	0	0	0
1.433	0	0	0	0	0	0	0	0	0	0	0	0	0	0	0	0	0	0
1.434	0	0	0	0	0	0	0	0	0	0	0	0	0	0	0	0	0	0
1.435	0	0	0	0	0	0	0	0	0	0	0	0	0	0	0	0	0	0
1.436	0	0	0	0	0	0	0	0	0	0	0	0	0	0	0	0	0	0
1.437	0	0	0	0	0	0	0	0	0	0	0	0	0	0	0	0	0	0
1.438	0	0	0	0	0	0	0	0	0	0	0	0	0	0	0	0	0	0
1.439	0	0	0	0	0	0	0	0	0	0	0	0	0	0	0	0	0	0
1.44	0	0	0	0	0	0	0	0	0	0	0	0	0	0	0	0	0	0
1.441	0	0	0	0	0	0	0	0	0	0	0	0	0	0	0	0	0	0
1.442	0	0	0	0	0	0	0	0	0	0	0	0	0	0	0	0	0	0
1.443	0	0	0	0	0	0	0	0	0	0	0	0	0	0	0	0	0	0
1.444	0	0	0	0	0	0	0	0	0	0	0	0	0	0	0	0	0	0
1.445	0	0	0	0	0	0	0	0	0	0	0	0	0	0	0	0	0	0
1.446	0	0	0	0	0	0	0	0	0	0	0	0	0	0	0	0	0	0
1.447	0	0	0	0	0	0	0	0	0	0	0	0	0	0	0	0	0	0
1.448	0	0	0	0	0	0	0	0	0	0	0	0	0	0	0	0	0	0
1.449	0	0	0	0	0	0	0	0	0	0	0	0	0	0	0	0	0	0
1.45	0	0	0	0	0	0	0	0	0	0	0	0	0	0	0	0	0	0
1.451	0	0	0	0	0	0	0	0	0	0	0	0	0	0	0	0	0	0
1.452	0	0	0	0	0	0	0	0	0	0	0	0	0	0	0	0	0	0
1.453	0	0	0	0	0	0	0	0	0	0	0	0	0	0	0	0	0	0
1.454	0	0	0	0	0	0	0	0	0	0	0	0	0	0	0	0	0	0
1.455	0	0	0	0	0	0	0	0	0	0	0	0	0	0	0	0	0	0
1.456	0	0	0	0	0	0	0	0	0	0	0	0	0	0	0	0	0	0
1.457	0	0	0	0	0	0	0	0	0	0	0	0	0	0	0	0	0	0
1.458	0	0	0	0	0	0	0	0	0	0	0	0	0	0	0	0	0	0
1.459	0	0	0	0	0	0	0	0	0	0	0	0	0	0	0	0	0	0
1.46	0	0	0	0	0	0	0	0	0	0	0	0	0	0	0	0	0	0
1.461	0	0	0	0	0	0	0	0	0	0	0	0	0	0	0	0	0	0
1.462	0	0	0	0	0	0	0	0	0	0	0	0	0	0	0	0	0	0
1.463	0	0	0	0	0	0	0	0	0	0	0	0	0	0	0	0	0	0
1.464	0	0	0	0	0	0	0	0	0	0	0	0	0	0	0	0	0	0
1.465	0	0	0	0	0	0	0	0	0	0	0	0	0	0	0	0	0	0
1.466	0	0	0	0	0	0	0	0	0	0	0	0	0	0	0	0	0	0
1.467	0	0	0	0	0	0	0	0	0	0	0	0	0	0	0	0	0	0
1.468	0	0	0	0	0	0	0	0	0	0	0	0	0	0	0	0	0	0
1.469	0	0	0	0	0	0	0	0	0	0	0	0	0	0	0	0	0	0
1.47	0	0	0	0	0	0	0	0	0	0	0	0	0	0	0	0	0	0
1.471	0	0	0	0	0	0	0	0	0	0	0	0	0	0	0	0	0	0
1.472	0	0	0	0	0	0	0	0	0	0	0	0	0	0	0	0	0	0
1.473	0	0	0	0	0	0	0	0	0	0	0	0	0	0	0	0	0	0
1.474	0	0	0	0	0	0	0	0	0	0	0	0	0	0	0	0	0	0
1.475	0	0	0	0	0	0	0	0	0	0	0	0	0	0	0	0	0	0
1.476	0	0	0	0	0	0	0	0	0	0	0	0	0	0	0	0	0	0
1.477	0	0	0	0	0	0	0	0	0	0	0	0	0	0	0	0	0	0
1.478	0	0	0	0	0	0	0	0	0	0	0	0	0	0	0	0	0	0
1.479	0	0	0	0	0	0	0	0	0	0	0	0	0	0	0	0	0	0
1.48	0	0	0	0	0	0	0	0	0	0	0	0	0	0	0	0	0	0
1.481	0	0	0	0	0	0	0	0	0	0	0	0	0	0	0	0	0	0
1.482	0	0	0	0	0	0	0	0	0	0	0	0	0	0	0	0	0	0
1.483	0	0	0	0	0	0	0	0	0	0	0	0	0	0	0	0	0	0
1.484	0	0	0	0	0	0	0	0	0	0	0	0	0	0	0	0	0	0
1.485	0	0	0	0	0	0	0	0	0	0	0	0	0	0	0	0	0	0
1.486	0	0	0	0	0	0	0	0	0	0	0	0	0	0	0	0	0	0
1.487	0	0	0	0	0	0	0	0	0	0	0	0	0	0	0	0	0	0
1.488	0	0	0	0	0	0	0	0	0	0	0	0	0	0	0	0	0	0
1.489	0	0	0	0	0	0	0	0	0	0	0	0	0	0	0	0	0	0
1.49	0	0	0	0	0	0	0	0	0	0	0	0	0	0	0	0	0	0
1.491	-5.213504	10.086267	-3.89065	0.859051	0	-0.213585	0	0	0	0	0	0	0	-1.594452	0	0	0	0
1.492	-6.151504	11.500155	-4.390055	0.873281	0	-0.215885	0	0	0	0	0	0	0	-1.472087	0	0	0	0
1.493	-7.212676	13.176874	-4.931024	0.887148	0	-0.218137	0	0	0	0	0	0	0	-1.341653	0	0	0	0
1.494	-8.407295	15.15926	-5.516695	0.900281	0	-0.220324	0	0	0	0	0	0	0	-1.203465	0	0	0	0
1.495	-9.747169	17.49485	-6.15016	0.912436	0	-0.222425	0	0	0	0	0	0	0	-1.057877	0	0	0	0
1.496	-11.245749	20.236055	-6.83441	0.923481	0	-0.224416	0	0	0	0	0	0	0	-0.905287	0	0	0	0
1.497	-12.918184	23.440273	-7.572287	0.933373	0	-0.226279	0	0	0	0	0	0	0	-0.7461370000000001	0	0	0	0
1.498	-14.781303	27.169905	-8.366434999999999	0.942134	0	-0.228001	0	0	0	0	0	0	0	-0.580908	0	0	0	0
1.499	-16.853523	31.492262	-9.219244	0.949829	0	-0.229574	0	0	0	0	0	0	0	-0.410123	0	0	0	0
1.5	-19.154673	36.479359	-10.132806	0.956547	0	-0.230997	0	0	0	0	0	0	0	-0.234344	0	0	0	0
1.501	-21.705715	42.207535	-11.108856	0.96239	0	-0.232274	0	0	0	0	0	0	0	-0.05417	0	0	0	0
1.502	-24.528381	48.756924	-12.148729	0.967462	0	-0.233412	0	0	0	0	0	0	-0	0.129761	-0	0	0	0
1.503	-27.644703	56.210751	-13.253308	0.971861	0	-0.234421	0	0	0	0	0	0	-0	0.31678	-0	0	0	0
1.504	-31.076445	64.654427	-14.422976	0.97568	0	-0.235314	0	0	0	0	0	0	-0	0.506183	-0	0	0	0
1.505	-34.844452	74.174454	-15.657575	0.978998	0	-0.236104	0	0	0	0	0	0	-0	0.6972390000000001	-0	0	0	0
1.506	-38.967918	84.85717	-16.95636	0.981889	0	-0.236805	0	0	0	0	0	0	-0	0.889189	-0	0	0	0
1.507	-43.463577	96.78729199999999	-18.317959	0.984411	0	-0.23743	0	0	0	0	0	0	-0	1.081249	-0	0	0	0
1.508	-48.344872	110.046333	-19.740339	0.986617	0	-0.237992	0	0	0	0	0	0	-0	1.272616	-0	0	0	0
1.509	-53.621067	124.710854	-21.220772	0.988548	0	-0.238502	0	0	0	0	0	0	-0	1.46247	-0	0	0	0
1.51	-59.296406	140.850693	-22.7558	0.990239	0	-0.238972	0	0	0	0	0	0	-0	1.649976	-0	0	0	0
1.511	-65.369247	158.5271	-24.341219	0.991715	0	-0.239411	0	0	0	0	0	0	-0	1.834292	-0	0	0	0
1.512	-71.831329	177.790894	-25.972054	0.992997	0	-0.239829	0	0	0	0	0	0	-0	2.014569	-0	0	0	0
1.513	-78.667091	198.680695	-27.642544	0.994101	0	-0.240232	0	0	0	0	0	0	-0	2.189957	-0	0	0	0
1.514	-85.853149	221.221329	-29.346134	0.995036	0	-0.240628	0	0	0	0	0	0	-0	2.359611	-0	0	0	0
1.515	-93.35794799999999	245.422379	-31.075483	0.9958090000000001	0	-0.241022	0	0	0	0	0	0	-0	2.522693	-0	0	0	0
1.516	-101.141655	271.277039	-32.82246	0.996424	0	-0.24142	0	0	0	0	0	0	-0	2.678378	-0	0	0	0
1.517	-109.156242	298.76123	-34.578159	0.99688	0	-0.241826	0	0	0	0	0	0	-0	2.825861	-0	0	0	0
1.518	-117.345901	327.833313	-36.332939	0.997176	0	-0.242242	0	0	0	0	0	0	-0	2.964356	-0	0	0	0
1.519	-125.64772	358.43396	-38.076447	0.9973070000000001	0	-0.242673	0	0	0	0	0	0	-0	3.093108	-0	0	0	0
1.52	-133.992661	390.486664	-39.797661	0.997269	0	-0.243121	0	0	0	0	0	0	-0	3.211394	-0	0	0	0
1.521	-142.306915	423.898682	-41.48497	0.997057	0	-0.243587	0	0	0	0	0	0	-0	3.318527	-0	0	0	0
1.522	-150.513428	458.562469	-43.126217	0.996664	0	-0.244074	0	0	0	0	0	0	-0	3.413865	-0	0	0	0
1.523	-158.533783	494.357452	-44.708801	0.9960830000000001	0	-0.244583	0	0	0	0	0	0	-0	3.49681	-0	0	0	0
1.524	-166.290344	531.1522220000001	-46.219769	0.995309	0	-0.245114	0	0	0	0	0	0	-0	3.56682	-0	0	0	0
1.525	-173.708344	568.80719	-47.645912	0.994337	0	-0.245667	0	0	0	0	0	0	-0	3.623405	-0	0	0	0
1.526	-180.718323	607.177063	-48.973915	0.993162	0	-0.246245	0	0	0	0	0	0	-0	3.666139	-0	0	0	0
1.527	-187.258347	646.113525	-50.190456	0.991781	0	-0.246845	0	0	0	0	0	0	-0	3.694658	-0	0	0	0
1.528	-193.276245	685.468201	-51.282379	0.990193	0	-0.247469	0	0	0	0	0	0	-0	3.708667	-0	0	0	0
1.529	-198.731552	725.094971	-52.236828	0.988399	0	-0.248114	0	0	0	0	0	0	-0	3.707942	-0	0	0	0
1.53	-203.597107	764.852295	-53.041428	0.986401	0	-0.248781	0	0	0	0	0	0	-0	3.692334	-0	0	0	0
1.531	-207.860397	804.60498	-53.684437	0.984204	0	-0.249467	0	0	0	0	0	0	-0	3.661772	-0	0	0	0
1.532	-211.5242	844.225891	-54.154945	0.981814	0	-0.250172	0	0	0	0	0	0	-0	3.616261	-0	0	0	0
1.533	-214.60675	883.596436	-54.443027	0.979241	0	-0.250893	0	0	0	0	0	0	-0	3.55589	-0	0	0	0
1.534	-217.141357	922.607544	-54.539948	0.976498	0	-0.251627	0	0	0	0	0	0	-0	3.480829	-0	0	0	0
1.535	-219.175323	961.1596070000001	-54.438309	0.973598	0	-0.252372	0	0	0	0	0	0	-0	3.391331	-0	0	0	0
1.536	-220.768341	999.162109	-54.132248	0.970557	0	-0.253125	0	0	0	0	0	0	-0	3.28773	-0	0	0	0
1.537	-221.990326	1036.532959	-53.617584	0.9673929999999999	0	-0.253883	0	0	0	0	0	0	-0	3.170446	-0	0	0	0
1.538	-222.9189	1073.198242	-52.891979	0.964125	0	-0.254642	0	0	0	0	0	0	-0	3.039977	-0	0	0	0
1.539	-223.63649	1109.09082	-51.955055	0.960775	0	-0.255398	0	0	0	0	0	0	-0	2.896904	-0	0	0	0
1.54	-224.227325	1144.149902	-50.808529	0.957362	0	-0.256149	0	0	0	0	0	0	-0	2.741884	-0	0	0	0
1.541	-224.774384	1178.320557	-49.456299	0.953908	0	-0.256889	0	0	0	0	0	0	-0	2.575649	-0	0	0	0
1.542	-225.356461	1211.553101	-47.904507	0.950433	0	-0.257617	0	0	0	0	0	0	-0	2.399006	-0	0	0	0
1.543	-226.045609	1243.802856	-46.161587	0.946958	0	-0.258328	0	0	0	0	0	0	-0	2.212827	-0	0	0	0
1.544	-226.904785	1275.030273	-44.238255	0.943499	0	-0.25902	0	0	0	0	0	0	-0	2.018049	-0	0	0	0
1.545	-227.986176	1305.201538	-42.147503	0.940075	0	-0.25969	0	0	0	0	0	0	-0	1.815667	-0	0	0	0
1.546	-229.329956	1334.28833	-39.904514	0.936698	0	-0.260336	0	0	0	0	0	0	-0	1.606732	-0	0	0	0
1.547	-230.963623	1362.269165	-37.526581	0.933381	0	-0.260956	0	0	0	0	0	0	-0	1.39234	-0	0	0	0
1.548	-232.901871	1389.129517	-35.03294	0.930133	0	-0.261548	0	0	0	0	0	0	-0	1.173631	-0	0	0	0
1.549	-235.147049	1414.862427	-32.444611	0.926961	0	-0.262112	0	0	0	0	0	0	-0	0.951777	-0	0	0	0
1.55	-237.689896	1439.469116	-29.784172	0.923868	0	-0.262648	0	0	0	0	0	0	-0	0.727982	-0	0	0	0
1.551	-240.510727	1462.958984	-27.07551	0.920857	0	-0.263155	0	0	0	0	0	0	-0	0.503466	-0	0	0	0
1.552	-243.58078	1485.350098	-24.343531	0.917925	0	-0.263636	0	0	0	0	0	0	-0	0.279467	-0	0	0	0
1.553	-246.863724	1506.668457	-21.613848	0.915069	0	-0.26409	0	0	0	0	0	0	-0	0.057227	-0	0	0	0
1.554	-250.317215	1526.947998	-18.912449	0.912284	0	-0.26452	0	0	0	0	0	0	0	-0.162015	0	0	0	0
1.555	-253.894272	1546.229736	-16.265326	0.909563	0	-0.264926	0	0	0	0	0	0	0	-0.377027	0	0	0	0
1.556	-257.544739	1564.561523	-13.698123	0.906897	0	-0.265313	0	0	0	0	0	0	0	-0.586596	0	0	0	0
1.557	-261.216492	1581.996094	-11.235753	0.904278	0	-0.265681	0	0	0	0	0	0	0	-0.789533	0	0	0	0
1.558	-264.856476	1598.591309	-8.902032	0.901694	0	-0.266033	0	0	0	0	0	0	0	-0.984679	0	0	0	0
1.559	-268.411591	1614.408325	-6.71932	0.899134	0	-0.266371	0	0	0	0	0	0	0	-1.170916	0	0	0	0
1.56	-271.829651	1629.510742	-4.70818	0.89659	0	-0.266698	0	0	0	0	0	0	0	-1.347172	0	0	0	0
1.561	-275.059906	1643.963745	-2.887066	0.894048	0	-0.267015	0	0	0	0	0	0	0	-1.512424	0	0	0	0
1.562	-278.053741	1657.833252	-1.272042	0.8915	0	-0.267324	0	0	0	0	0	0	0	-1.665709	0	0	0	0
1.563	-280.765259	1671.184692	0.123456	0.8889359999999999	0	-0.267627	0	0	0	0	0	0	0	-1.806128	0	0	0	0
1.564	-283.151947	1684.08252	1.288816	0.886346	0	-0.267925	0	0	0	0	0	0	0	-1.932849	0	0	0	0
1.565	-285.175018	1696.588989	2.216389	0.883723	0	-0.268217	0	0	0	0	0	0	0	-2.045114	0	0	0	0
1.566	-286.800201	1708.764038	2.901578	0.881061	0	-0.268506	0	0	0	0	0	0	0	-2.142241	0	0	0	0
1.567	-287.998108	1720.664185	3.342869	0.8783530000000001	0	-0.26879	0	0	0	0	0	0	0	-2.223627	0	0	0	0
1.568	-288.744843	1732.341675	3.541805	0.875595	0	-0.269068	0	0	0	0	0	0	0	-2.288755	0	0	0	0
1.569	-289.022186	1743.84436	3.502901	0.872785	0	-0.269341	0	0	0	0	0	0	0	-2.337188	0	0	0	0
